<?xml version="1.0" encoding="UTF-8" standalone="no"?>
<!-- Created with Inkscape (http://www.inkscape.org/) -->
<svg
   xmlns:dc="http://purl.org/dc/elements/1.1/"
   xmlns:cc="http://web.resource.org/cc/"
   xmlns:rdf="http://www.w3.org/1999/02/22-rdf-syntax-ns#"
   xmlns:svg="http://www.w3.org/2000/svg"
   xmlns="http://www.w3.org/2000/svg"
   xmlns:sodipodi="http://sodipodi.sourceforge.net/DTD/sodipodi-0.dtd"
   xmlns:inkscape="http://www.inkscape.org/namespaces/inkscape"
   width="64px"
   height="64px"
   id="svg1872"
   sodipodi:version="0.32"
   inkscape:version="0.44.1"
   sodipodi:docbase="/home/liw"
   sodipodi:docname="notetak.svg"
   inkscape:export-filename="/home/liw/notetak.png"
   inkscape:export-xdpi="90"
   inkscape:export-ydpi="90">
  <defs
     id="defs1874" />
  <sodipodi:namedview
     id="base"
     pagecolor="#ffffff"
     bordercolor="#666666"
     borderopacity="1.0"
     inkscape:pageopacity="0.0"
     inkscape:pageshadow="2"
     inkscape:zoom="16"
     inkscape:cx="29.215796"
     inkscape:cy="7.38317"
     inkscape:current-layer="layer1"
     showgrid="true"
     inkscape:document-units="px"
     inkscape:grid-bbox="true"
     inkscape:window-width="916"
     inkscape:window-height="729"
     inkscape:window-x="0"
     inkscape:window-y="25" />
  <metadata
     id="metadata1877">
    <rdf:RDF>
      <cc:Work
         rdf:about="">
        <dc:format>image/svg+xml</dc:format>
        <dc:type
           rdf:resource="http://purl.org/dc/dcmitype/StillImage" />
      </cc:Work>
    </rdf:RDF>
  </metadata>
  <g
     id="layer1"
     inkscape:label="Layer 1"
     inkscape:groupmode="layer">
    <rect
       style="fill:#e9e8d1;fill-rule:evenodd;stroke:black;stroke-width:2.99999975;stroke-linecap:butt;stroke-linejoin:miter;stroke-opacity:1;fill-opacity:1;stroke-miterlimit:4;stroke-dasharray:none"
       id="rect1880"
       width="31.272728"
       height="46.272728"
       x="2.5488544"
       y="17.993498"
       transform="matrix(0.906308,-0.422618,0.422618,0.906308,0,0)" />
    <path
       style="fill:none;fill-rule:evenodd;stroke:black;stroke-width:1px;stroke-linecap:butt;stroke-linejoin:miter;stroke-opacity:1"
       d="M 16.545455,18.363636 C 16.471427,18.291122 17.949522,20.924283 18.909091,22.363636 C 19.731363,23.597045 20.603775,19.850085 21.818182,19 C 24.811082,16.90497 21.034215,15.719779 25,18.363636 C 25.551732,18.731458 24.179827,19.640345 26,16 C 26.926328,14.147344 28.800212,19 30.909091,19 C 33.938105,19 33.766685,14.82221 35.818182,13.454545 C 38.09025,11.939834 36.505571,11.59648 38.909091,14"
       id="path2768" />
    <path
       style="fill:none;fill-rule:evenodd;stroke:black;stroke-width:1px;stroke-linecap:butt;stroke-linejoin:miter;stroke-opacity:1"
       d="M 24.363636,32.363636 C 24.687582,32.147672 24.768289,25.098011 25.454545,24 C 26.268646,22.697439 30.173752,33.494879 31.818182,25.272727 C 33.048964,19.118816 34.496906,23.04236 37.090909,25.636364 C 37.333333,25.878788 37.575758,26.121212 37.818182,26.363636 C 39.310189,27.855644 42.837026,23.344792 43.818182,22.363636 C 44.105662,22.076157 44.296799,23.053519 44.363636,23.454545"
       id="path2770" />
    <path
       style="fill:none;fill-rule:evenodd;stroke:black;stroke-width:1px;stroke-linecap:butt;stroke-linejoin:miter;stroke-opacity:1"
       d="M 26.363636,40.909091 C 28.713993,38.558735 30,37.105748 30,32.909091 C 30,32.577668 31.230432,37.28646 34.363636,39.636364 C 39.366211,43.388295 44.750994,38.577129 44.181818,33.454545 C 43.661185,28.768849 40.054811,34.054811 42.363636,36.363636 C 46.485888,40.485888 49.741656,33.95224 48.545455,30.363636 C 48.382549,29.874921 48.060606,29.454545 47.818182,29 C 47.609657,28.609017 47.797026,29.883644 47.818182,30"
       id="path2772" />
    <path
       style="fill:none;fill-rule:evenodd;stroke:black;stroke-width:1px;stroke-linecap:butt;stroke-linejoin:miter;stroke-opacity:1"
       d="M 37.090909,46.909091 C 25.592602,55.531577 38.822778,42.36207 45.636364,44 C 47.269937,44.392697 47.14355,41.403735 48.712311,42.005204 C 52.778175,43.564071 46.941156,39 47.818182,39"
       id="path2774"
       sodipodi:nodetypes="cssc" />
    <rect
       style="fill:#fffa00;fill-opacity:1;stroke:black;stroke-width:1.33961821;stroke-miterlimit:4;stroke-dasharray:none;stroke-opacity:1"
       id="rect2776"
       width="7.3512459"
       height="45.268768"
       x="11.129964"
       y="2.4747424" />
    <path
       sodipodi:type="star"
       style="fill:#e0e5ae;fill-opacity:1;stroke:black;stroke-width:1;stroke-miterlimit:4;stroke-dasharray:none;stroke-opacity:1"
       id="path2780"
       sodipodi:sides="3"
       sodipodi:cx="7.4246211"
       sodipodi:cy="50.564972"
       sodipodi:r1="8.3788319"
       sodipodi:r2="3.3000948"
       sodipodi:arg1="1.5701464"
       sodipodi:arg2="2.617344"
       inkscape:flatsided="true"
       inkscape:rounded="0"
       inkscape:randomized="0"
       d="M 7.4300667,58.943802 L 0.16561858,46.380273 L 14.678178,46.370841 L 7.4300667,58.943802 z "
       transform="matrix(0.539107,0,-5.816858e-7,0.976264,10.72418,3.092577)" />
    <path
       sodipodi:type="star"
       style="fill:black;fill-opacity:1;stroke:black;stroke-width:1;stroke-miterlimit:4;stroke-dasharray:none;stroke-opacity:1"
       id="path2782"
       sodipodi:sides="3"
       sodipodi:cx="1.4142137"
       sodipodi:cy="35.892506"
       sodipodi:r1="2.2356226"
       sodipodi:r2="1.1524431"
       sodipodi:arg1="1.5659997"
       sodipodi:arg2="2.6131973"
       inkscape:flatsided="true"
       inkscape:rounded="0"
       inkscape:randomized="0"
       d="M 1.4249371,38.128103 L -0.52723178,34.783994 L 3.3449357,34.76542 L 1.4249371,38.128103 z "
       transform="matrix(0.519506,0,0,1.041464,13.89451,19.16085)" />
  </g>
</svg>
